<mxfile host="app.diagrams.net" modified="2020-10-07T13:24:31.718Z" agent="5.0 (X11; Linux x86_64) AppleWebKit/537.36 (KHTML, like Gecko) Chrome/85.0.4183.102 Safari/537.36" etag="rDrIyf5czy8GRbILCUtk" version="13.7.7" type="github">
  <diagram id="C5RBs43oDa-KdzZeNtuy" name="Page-1">
    <mxGraphModel dx="1355" dy="774" grid="1" gridSize="10" guides="1" tooltips="1" connect="1" arrows="1" fold="1" page="1" pageScale="1" pageWidth="827" pageHeight="1169" math="0" shadow="0">
      <root>
        <mxCell id="WIyWlLk6GJQsqaUBKTNV-0" />
        <mxCell id="WIyWlLk6GJQsqaUBKTNV-1" parent="WIyWlLk6GJQsqaUBKTNV-0" />
        <mxCell id="WIyWlLk6GJQsqaUBKTNV-3" value="Index" style="rounded=1;whiteSpace=wrap;html=1;fontSize=12;glass=0;strokeWidth=1;shadow=0;fillColor=#f5f5f5;strokeColor=#666666;fontColor=#333333;" parent="WIyWlLk6GJQsqaUBKTNV-1" vertex="1">
          <mxGeometry x="240" y="190" width="120" height="40" as="geometry" />
        </mxCell>
        <mxCell id="gWDGd3ZfjciZq8jlxcQq-0" value="Log In" style="rounded=1;whiteSpace=wrap;html=1;fontSize=12;glass=0;strokeWidth=1;shadow=0;fillColor=#f5f5f5;strokeColor=#666666;fontColor=#333333;" vertex="1" parent="WIyWlLk6GJQsqaUBKTNV-1">
          <mxGeometry x="240" y="430" width="120" height="40" as="geometry" />
        </mxCell>
        <mxCell id="gWDGd3ZfjciZq8jlxcQq-1" value="Sign Up" style="rounded=1;whiteSpace=wrap;html=1;fontSize=12;glass=0;strokeWidth=1;shadow=0;fillColor=#f5f5f5;strokeColor=#666666;fontColor=#333333;" vertex="1" parent="WIyWlLk6GJQsqaUBKTNV-1">
          <mxGeometry x="480" y="430" width="120" height="40" as="geometry" />
        </mxCell>
        <mxCell id="gWDGd3ZfjciZq8jlxcQq-2" value="Dashboard&lt;br&gt;" style="rounded=1;whiteSpace=wrap;html=1;fontSize=12;glass=0;strokeWidth=1;shadow=0;fillColor=#f5f5f5;strokeColor=#666666;fontColor=#333333;" vertex="1" parent="WIyWlLk6GJQsqaUBKTNV-1">
          <mxGeometry x="240" y="640" width="120" height="40" as="geometry" />
        </mxCell>
        <mxCell id="gWDGd3ZfjciZq8jlxcQq-7" value="&lt;b&gt;Dashboard - &amp;lt;Inventory Title&amp;gt;&lt;/b&gt;&lt;br&gt;&lt;br&gt;&lt;span&gt;[Add New]&lt;/span&gt;&lt;br&gt;&lt;span&gt;[Edit Existing]&lt;br&gt;&lt;/span&gt;[Import from CSV]&lt;br&gt;&lt;br&gt;&lt;span&gt;Recent Works:&lt;/span&gt;&lt;br&gt;&lt;div&gt;&amp;lt;List most recent additions&amp;gt;&lt;/div&gt;" style="rounded=0;whiteSpace=wrap;html=1;align=left;" vertex="1" parent="WIyWlLk6GJQsqaUBKTNV-1">
          <mxGeometry x="240" y="680" width="180" height="120" as="geometry" />
        </mxCell>
        <mxCell id="gWDGd3ZfjciZq8jlxcQq-14" style="edgeStyle=orthogonalEdgeStyle;rounded=0;orthogonalLoop=1;jettySize=auto;html=1;" edge="1" parent="WIyWlLk6GJQsqaUBKTNV-1" source="gWDGd3ZfjciZq8jlxcQq-8">
          <mxGeometry relative="1" as="geometry">
            <mxPoint x="325" y="640" as="targetPoint" />
          </mxGeometry>
        </mxCell>
        <mxCell id="gWDGd3ZfjciZq8jlxcQq-8" value="&lt;b&gt;Log In&lt;/b&gt;&lt;br&gt;Email: ________&lt;br&gt;Password: _______&lt;br&gt;[sign in]" style="rounded=0;whiteSpace=wrap;html=1;align=left;" vertex="1" parent="WIyWlLk6GJQsqaUBKTNV-1">
          <mxGeometry x="240" y="470" width="170" height="70" as="geometry" />
        </mxCell>
        <mxCell id="gWDGd3ZfjciZq8jlxcQq-12" style="edgeStyle=orthogonalEdgeStyle;rounded=0;orthogonalLoop=1;jettySize=auto;html=1;entryX=0.75;entryY=0;entryDx=0;entryDy=0;" edge="1" parent="WIyWlLk6GJQsqaUBKTNV-1" source="gWDGd3ZfjciZq8jlxcQq-9" target="gWDGd3ZfjciZq8jlxcQq-0">
          <mxGeometry relative="1" as="geometry" />
        </mxCell>
        <mxCell id="gWDGd3ZfjciZq8jlxcQq-13" style="edgeStyle=orthogonalEdgeStyle;rounded=0;orthogonalLoop=1;jettySize=auto;html=1;entryX=0.5;entryY=0;entryDx=0;entryDy=0;" edge="1" parent="WIyWlLk6GJQsqaUBKTNV-1" source="gWDGd3ZfjciZq8jlxcQq-9" target="gWDGd3ZfjciZq8jlxcQq-1">
          <mxGeometry relative="1" as="geometry" />
        </mxCell>
        <mxCell id="gWDGd3ZfjciZq8jlxcQq-9" value="&lt;b&gt;Welcome to ARTrack&lt;/b&gt;&lt;br&gt;menu: [Log in]&lt;br&gt;&lt;br&gt;Information about the site&lt;br&gt;[Sign up]&lt;br&gt;&lt;br&gt;Informaiton about development&lt;br&gt;[Github]" style="rounded=0;whiteSpace=wrap;html=1;align=left;" vertex="1" parent="WIyWlLk6GJQsqaUBKTNV-1">
          <mxGeometry x="240" y="230" width="180" height="130" as="geometry" />
        </mxCell>
        <mxCell id="gWDGd3ZfjciZq8jlxcQq-15" style="edgeStyle=orthogonalEdgeStyle;rounded=0;orthogonalLoop=1;jettySize=auto;html=1;entryX=0.918;entryY=0.001;entryDx=0;entryDy=0;entryPerimeter=0;" edge="1" parent="WIyWlLk6GJQsqaUBKTNV-1" source="gWDGd3ZfjciZq8jlxcQq-10" target="gWDGd3ZfjciZq8jlxcQq-2">
          <mxGeometry relative="1" as="geometry">
            <Array as="points">
              <mxPoint x="350" y="560" />
              <mxPoint x="350" y="597" />
              <mxPoint x="350" y="597" />
            </Array>
          </mxGeometry>
        </mxCell>
        <mxCell id="gWDGd3ZfjciZq8jlxcQq-10" value="&lt;b&gt;Register&lt;/b&gt;&lt;br&gt;First Name: ________&lt;br&gt;Last Name: ________&lt;br&gt;Email: ________&lt;br&gt;Password: _______&lt;br&gt;Confirm Password: _______&lt;br&gt;[Sign Up]" style="rounded=0;whiteSpace=wrap;html=1;align=left;" vertex="1" parent="WIyWlLk6GJQsqaUBKTNV-1">
          <mxGeometry x="480" y="470" width="170" height="110" as="geometry" />
        </mxCell>
        <mxCell id="gWDGd3ZfjciZq8jlxcQq-16" value="Log in" style="text;html=1;strokeColor=none;fillColor=none;align=center;verticalAlign=middle;whiteSpace=wrap;rounded=0;" vertex="1" parent="WIyWlLk6GJQsqaUBKTNV-1">
          <mxGeometry x="330" y="380" width="40" height="20" as="geometry" />
        </mxCell>
        <mxCell id="gWDGd3ZfjciZq8jlxcQq-17" value="Sign Up" style="text;html=1;strokeColor=none;fillColor=none;align=center;verticalAlign=middle;whiteSpace=wrap;rounded=0;" vertex="1" parent="WIyWlLk6GJQsqaUBKTNV-1">
          <mxGeometry x="540" y="340" width="50" height="20" as="geometry" />
        </mxCell>
        <mxCell id="gWDGd3ZfjciZq8jlxcQq-19" value="Sign Up" style="text;html=1;strokeColor=none;fillColor=none;align=center;verticalAlign=middle;whiteSpace=wrap;rounded=0;" vertex="1" parent="WIyWlLk6GJQsqaUBKTNV-1">
          <mxGeometry x="410" y="560" width="50" height="20" as="geometry" />
        </mxCell>
        <mxCell id="gWDGd3ZfjciZq8jlxcQq-20" value="Sign In" style="text;html=1;strokeColor=none;fillColor=none;align=center;verticalAlign=middle;whiteSpace=wrap;rounded=0;" vertex="1" parent="WIyWlLk6GJQsqaUBKTNV-1">
          <mxGeometry x="275" y="580" width="50" height="20" as="geometry" />
        </mxCell>
        <mxCell id="gWDGd3ZfjciZq8jlxcQq-21" value="&lt;h1&gt;ARTrack Flow&lt;/h1&gt;&lt;p&gt;Currently the goal is to get this extremely minimal flow working&lt;/p&gt;" style="text;html=1;strokeColor=none;fillColor=none;spacing=5;spacingTop=-20;whiteSpace=wrap;overflow=hidden;rounded=0;" vertex="1" parent="WIyWlLk6GJQsqaUBKTNV-1">
          <mxGeometry x="40" y="40" width="190" height="120" as="geometry" />
        </mxCell>
      </root>
    </mxGraphModel>
  </diagram>
</mxfile>
